<svg width="117" height="76" viewBox="0 0 117 76" fill="none" xmlns="http://www.w3.org/2000/svg">
<path d="M58.1196 48.9633C58.2521 49.7045 58.4982 50.3603 58.7823 51.0041C58.8855 51.238 58.9562 51.4748 58.6934 51.6447C58.4503 51.8019 58.2154 51.7061 58.0129 51.5452C57.671 51.2734 57.3952 50.9478 57.1922 50.5651C56.7656 49.7605 56.3948 48.9322 56.1912 48.0485C56.0789 47.5608 55.8336 47.2665 55.3563 47.0312C52.2819 45.5156 49.7197 43.4665 48.2463 40.3572C46.8076 37.3211 46.8069 34.247 48.0277 31.1404C49 28.6661 50.5782 26.5913 52.4609 24.7095C54.0107 23.1606 55.6901 21.7425 57.2939 20.2481C58.0981 19.4987 58.1033 19.4949 57.3241 18.7476C55.8238 17.3086 54.8017 15.6172 54.4527 13.5869C53.9058 10.4057 54.753 7.61683 57.0411 5.25584C57.588 4.69151 58.1541 4.1433 58.8809 3.78595C59.6769 3.39456 60.0006 3.39051 60.6195 3.99191C62.3373 5.66093 63.5313 7.61491 63.9074 9.97804C64.4178 13.1852 63.3199 15.9126 61.2262 18.3418C59.3908 20.4713 57.207 22.2591 55.1301 24.1511C52.9559 26.1318 50.9225 28.2218 49.75 30.9335C48.2479 34.4074 48.2886 37.8125 50.4547 41.0476C51.5493 42.6823 53.067 43.9091 54.7552 44.9457C54.8642 45.0126 54.9911 45.0522 55.2302 45.1578C55.0717 44.4196 54.9355 43.7705 54.7929 43.1227C53.4282 36.9243 55.0712 31.6025 59.7352 27.1399C62.813 24.195 66.1291 21.5196 69.5443 18.9563C70.9417 17.9076 71.3944 18.0314 71.9711 19.6565C72.6633 21.6071 73.0515 23.6207 73.1772 25.6911C73.2904 27.556 73.2585 29.4004 72.8706 31.2322C72.0638 35.042 69.9197 38.0322 66.8521 40.4738C65.036 41.9193 62.9919 43.0318 61.0515 44.2959C60.2762 44.8009 59.5666 45.3826 58.8999 46.0183C58.2456 46.6422 57.9271 47.362 58.066 48.2559C58.0997 48.4731 58.0938 48.6961 58.1196 48.9633ZM59.1803 43.6799C59.961 43.0912 60.7614 42.5303 61.6098 42.0343C63.0919 41.1677 64.5454 40.2613 65.878 39.1841C67.9972 37.4708 69.7696 35.507 70.6915 32.9358C71.904 29.5539 71.8582 26.12 71.0872 22.6674C70.9249 21.9405 70.8015 21.1931 70.4389 20.5153C70.0198 20.5708 69.7496 20.8196 69.4674 21.0233C66.0908 23.4608 62.95 26.1554 60.0387 29.1024C57.6274 31.5432 56.3466 34.483 56.0528 37.8024C55.8476 40.1222 56.1496 42.4239 56.8661 44.6589C56.9396 44.888 56.9819 45.1674 57.2921 45.3003C57.9003 44.7763 58.5084 44.2524 59.1803 43.6799ZM56.9476 8.05242C54.8335 11.99 56.4548 16.2219 59.2467 18.1615C60.3236 17.2531 61.0832 16.1047 61.6648 14.8676C63.189 11.6261 62.2516 8.11036 59.8538 5.50429C59.6166 5.24652 59.4499 5.27824 59.1919 5.47409C58.2791 6.1668 57.5569 7.00922 56.9476 8.05242Z" fill="black"/>
<path d="M102.695 69.7036C102.691 69.0593 102.677 68.4702 102.686 67.8814C102.691 67.5673 102.592 67.4058 102.233 67.407C100.139 67.4142 98.0444 67.4123 95.9502 67.4041C95.5852 67.4027 95.4403 67.5455 95.4427 67.8984C95.4524 69.3157 95.4427 70.733 95.4485 72.1503C95.4504 72.6222 95.6562 73.0004 96.0633 73.2728C96.2173 73.3758 96.4218 73.4773 96.3469 73.6994C96.2731 73.9183 96.0368 73.892 95.857 73.8925C94.8881 73.8951 93.9191 73.8894 92.9505 73.8712C92.7691 73.8678 92.5352 73.8571 92.4746 73.6394C92.42 73.4433 92.6158 73.3548 92.7497 73.261C93.3321 72.853 93.4074 72.2378 93.411 71.63C93.4283 68.7035 93.4336 65.7767 93.4102 62.8502C93.4043 62.116 93.3452 61.3518 92.4597 61.0111C92.3363 60.9636 92.226 60.8605 92.2862 60.7064C92.339 60.5714 92.4698 60.5169 92.6089 60.5204C93.7304 60.5492 94.8526 60.5678 95.9725 60.6257C96.2929 60.6422 96.2813 60.894 96.0791 61.0497C95.4622 61.5249 95.4271 62.1666 95.4405 62.8479C95.4593 63.8047 95.4566 64.7623 95.4401 65.7192C95.4336 66.0952 95.5698 66.2462 95.9691 66.2441C98.0252 66.2333 100.081 66.2342 102.138 66.2453C102.521 66.2473 102.689 66.1307 102.683 65.7384C102.668 64.6158 102.679 63.4929 102.684 62.3701C102.687 61.8778 102.493 61.4792 102.11 61.159C101.987 61.0566 101.782 60.9823 101.864 60.7737C101.94 60.5795 102.144 60.6222 102.31 60.6023C103.335 60.4787 104.359 60.6723 105.384 60.6147C105.541 60.6059 105.696 60.6476 105.729 60.8331C105.756 60.9896 105.64 61.074 105.52 61.1287C104.793 61.4596 104.712 62.0898 104.699 62.7552C104.646 65.4055 104.791 68.0533 104.801 70.7027C104.802 71.089 104.789 71.4754 104.778 71.8617C104.762 72.4504 104.951 72.9455 105.46 73.3016C105.596 73.3964 105.777 73.4804 105.71 73.6868C105.65 73.8717 105.464 73.8323 105.321 73.8364C104.352 73.8641 103.384 73.891 102.416 73.9041C102.214 73.9068 101.958 73.9154 101.873 73.687C101.776 73.4237 102.049 73.3607 102.209 73.2482C102.582 72.9849 102.709 72.6149 102.707 72.1884C102.704 71.3786 102.699 70.5687 102.695 69.7036Z" fill="black"/>
<path d="M44.6956 68.4884C44.6911 70.1453 44.6888 71.747 44.6793 73.3486C44.6779 73.5807 44.7356 73.8703 44.4614 73.9858C44.2114 74.0911 43.981 73.9206 43.7828 73.7822C43.1749 73.3575 42.7027 72.7972 42.2287 72.247C39.9013 69.5459 37.5872 66.834 35.2667 64.1274C35.1478 63.9887 35.0127 63.8631 34.8865 63.7328C34.5876 63.8828 34.6476 64.1252 34.647 64.3321C34.639 66.707 34.6422 69.082 34.6313 71.4569C34.6279 72.1931 34.8031 72.8418 35.4424 73.309C35.5508 73.3883 35.6582 73.485 35.6065 73.6305C35.5581 73.7664 35.4241 73.8167 35.2853 73.818C34.4477 73.8257 33.6098 73.8437 32.7728 73.8252C32.4086 73.8171 32.3452 73.6035 32.5863 73.3522C33.2808 72.6286 33.4591 71.766 33.4489 70.8059C33.421 68.1735 33.4235 65.5404 33.4484 62.9079C33.4554 62.1643 33.2559 61.5763 32.5856 61.1665C32.4206 61.0657 32.1703 60.9517 32.2582 60.7085C32.3415 60.4779 32.6013 60.5126 32.8061 60.5165C33.4144 60.5278 34.0224 60.5567 34.6308 60.566C34.9215 60.5704 35.0617 60.7615 35.222 60.946C37.8055 63.92 40.3906 66.8926 42.9768 69.8644C43.0974 70.003 43.2029 70.1629 43.4057 70.2212C43.5593 70.0872 43.492 69.9103 43.4924 69.7562C43.4985 67.4733 43.4873 65.1903 43.5043 62.9075C43.51 62.1536 43.3684 61.4819 42.7293 60.9812C42.6563 60.9239 42.6082 60.839 42.6466 60.7366C43.135 60.5323 45.3318 60.5394 45.6532 60.7466C45.6515 60.7821 45.6636 60.8368 45.6445 60.8503C44.817 61.4365 44.6632 62.2459 44.69 63.1866C44.7398 64.9341 44.6987 66.6841 44.6956 68.4884Z" fill="black"/>
<path d="M49.6712 69.0407C49.6754 66.9616 49.648 64.937 49.6992 62.9143C49.7205 62.0731 49.509 61.4338 48.7014 61.046C48.6353 61.0142 48.5787 60.9607 48.5244 60.9105C48.4989 60.887 48.4895 60.8474 48.4711 60.8118C48.4679 60.6232 48.6149 60.5685 48.7628 60.5333C48.8719 60.5075 48.989 60.5092 49.1027 60.5065C51.1 60.4595 51.1003 60.4595 52.3838 61.9501C54.6115 64.5373 56.8377 67.1256 59.0686 69.7101C59.2215 69.8873 59.3385 70.1181 59.6534 70.168C59.8157 69.7326 59.8402 69.2776 59.8195 68.8287C59.7288 66.861 59.8728 64.8944 59.8331 62.9269C59.8176 62.1597 59.7162 61.4542 58.9489 61.0215C58.8337 60.9565 58.7241 60.8591 58.7629 60.7099C58.8089 60.533 58.9702 60.51 59.1258 60.51C59.906 60.5098 60.6866 60.5005 61.4662 60.524C61.7784 60.5334 61.9775 60.721 61.6891 60.9818C61.002 61.6033 60.9476 62.4068 60.945 63.2202C60.9342 66.5687 60.9418 69.9173 60.9349 73.2659C60.9345 73.4939 61.0488 73.7958 60.8017 73.9322C60.5183 74.0887 60.2614 73.8589 60.0234 73.7219C59.5574 73.4536 59.2263 73.0418 58.8778 72.6539C56.4195 69.9175 54.0658 67.0973 51.6999 64.2867C51.4758 64.0205 51.2428 63.7611 50.9321 63.4045C50.9103 63.8404 50.8822 64.1465 50.8816 64.4527C50.8776 66.7157 50.893 68.9789 50.8711 71.2417C50.8637 71.9967 51.053 72.6551 51.5796 73.2164C51.6944 73.3387 51.8381 73.4639 51.7405 73.6482C51.6474 73.8242 51.4562 73.8079 51.2856 73.809C50.5815 73.8134 49.8774 73.8169 49.1733 73.817C49.0236 73.8171 48.8535 73.8343 48.7795 73.6641C48.7194 73.526 48.8026 73.4152 48.8953 73.3186C49.5333 72.6535 49.7127 71.8527 49.6757 70.9725C49.6495 70.3479 49.6711 69.7215 49.6712 69.0407Z" fill="black"/>
<path d="M72.5688 72.7035C73.7913 72.5813 74.5167 71.8547 75.1446 70.9844C75.2638 70.8192 75.3382 70.4978 75.6255 70.6153C75.9144 70.7336 75.7904 71.0335 75.7478 71.2558C75.6304 71.8685 75.4479 72.4722 75.3713 73.0887C75.2995 73.6672 74.9744 73.8128 74.4447 73.8075C73.1698 73.7949 71.8948 73.8005 70.6198 73.8034C69.0594 73.807 67.499 73.8202 65.9386 73.817C65.6675 73.8165 65.3617 73.8984 65.1452 73.6524C65.1069 73.4023 65.3168 73.3357 65.4586 73.2273C65.9837 72.8258 66.2426 72.3293 66.2378 71.6577C66.2164 68.6221 66.2249 65.5863 66.2278 62.5507C66.2284 61.9444 66.0493 61.4318 65.5117 61.0711C65.3614 60.9703 65.1439 60.8714 65.2315 60.6474C65.3188 60.4243 65.5579 60.502 65.7353 60.5017C68.4947 60.4959 71.2541 60.506 74.0132 60.4859C74.4769 60.4826 74.6658 60.6574 74.7223 61.0696C74.7921 61.5785 74.8876 62.0841 74.965 62.5922C74.9933 62.7782 75.0027 62.9835 74.7808 63.0644C74.5742 63.1397 74.4584 62.9738 74.3826 62.8293C73.7804 61.6833 72.7752 61.3715 71.5242 61.4515C70.7304 61.5022 69.932 61.536 69.1305 61.4773C68.4878 61.4303 68.3633 61.5794 68.3701 62.2063C68.3836 63.4383 68.4245 64.6702 68.4234 65.9022C68.423 66.362 68.6187 66.4936 69.0711 66.5147C69.9485 66.5556 70.8197 66.4653 71.6939 66.4647C72.1519 66.4644 72.4094 66.1857 72.649 65.8579C72.7923 65.6618 72.8762 65.2981 73.2062 65.4089C73.5217 65.5147 73.3778 65.8588 73.3833 66.0989C73.3999 66.8161 73.3927 67.5339 73.3884 68.2514C73.3875 68.4103 73.4362 68.6142 73.2332 68.6857C73.0181 68.7615 72.9289 68.5714 72.8562 68.4299C72.4869 67.7117 71.8922 67.4594 71.0783 67.5176C70.3779 67.5678 69.6704 67.548 68.967 67.528C68.5183 67.5152 68.3652 67.6961 68.3636 68.1165C68.3581 69.478 68.3959 70.8374 68.4635 72.1974C68.4855 72.6412 68.7668 72.7242 69.099 72.7335C70.2392 72.7653 71.3804 72.7965 72.5688 72.7035Z" fill="black"/>
<path d="M82.802 64.9535C82.8019 63.9594 82.7874 63.0203 82.8085 62.0819C82.8177 61.6766 82.6632 61.5106 82.2462 61.5255C81.8089 61.5411 81.3705 61.5252 80.9326 61.5234C79.9084 61.5193 79.0867 61.8932 78.502 62.7253C78.3671 62.9172 78.2312 63.1889 77.9308 63.0798C77.6102 62.9633 77.7654 62.6641 77.7857 62.4494C77.8324 61.9567 77.9296 61.4687 77.9877 60.9767C78.0275 60.6394 78.203 60.4968 78.5512 60.4971C82.0356 60.4992 85.52 60.4956 89.0044 60.496C89.1723 60.496 89.3999 60.4665 89.456 60.6533C89.7017 61.4709 89.8834 62.3004 89.8521 63.1497C89.4655 63.2314 89.3483 63.0012 89.2313 62.834C88.264 61.4522 86.827 61.3704 85.3147 61.4934C84.9751 61.521 84.8285 61.7007 84.8288 62.0456C84.832 65.229 84.8321 68.4124 84.8108 71.5957C84.8064 72.2556 84.9645 72.8293 85.4355 73.3121C85.5411 73.4204 85.6596 73.5275 85.5771 73.6951C85.5196 73.8119 85.3962 73.8203 85.282 73.8204C84.2919 73.8215 83.3019 73.8214 82.3119 73.8173C82.1554 73.8167 82.01 73.7759 81.9429 73.6137C81.9457 73.5764 81.9338 73.5215 81.9532 73.5076C82.7536 72.9356 82.8312 72.1348 82.8143 71.249C82.7748 69.1696 82.8019 67.0889 82.802 64.9535Z" fill="black"/>
<path d="M14.435 70.9155C14.439 71.338 14.423 71.7075 14.4526 72.0735C14.4835 72.4574 14.6637 72.7267 15.1169 72.7638C16.2742 72.8586 17.428 72.9378 18.5886 72.7788C19.619 72.6376 20.4099 72.1852 20.9047 71.2798C21.0041 71.0979 21.0742 70.7926 21.3606 70.8784C21.6616 70.9686 21.582 71.2523 21.5432 71.494C21.4501 72.0741 21.3586 72.6549 21.2906 73.2381C21.2392 73.6791 21.0142 73.8989 20.5512 73.9007C19.6378 73.9043 18.7245 73.9209 17.8111 73.9226C16.0981 73.9258 14.3851 73.9273 12.6721 73.9176C12.2613 73.9153 11.8372 73.9392 11.4731 73.7409C11.382 73.5344 11.5116 73.4386 11.6286 73.3474C12.1441 72.9454 12.3238 72.4204 12.3208 71.7909C12.3077 69.0858 12.3308 66.3806 12.3048 63.6758C12.2955 62.7134 12.6036 61.678 11.633 60.834C12.8858 60.4668 14.0069 60.7716 15.1607 60.7188C15.1457 60.8518 15.165 60.9444 15.1264 60.9833C14.4929 61.6232 14.4299 62.4154 14.4334 63.2425C14.4444 65.7819 14.4359 68.3214 14.435 70.9155Z" fill="black"/>
<path d="M25.6712 66.0581C25.6711 64.9726 25.6448 63.9415 25.6795 62.9123C25.7066 62.1064 25.6673 61.357 24.795 60.9405C25.2258 60.5341 28.1125 60.4736 28.6412 60.812C28.663 60.9148 28.6205 61.0118 28.5361 61.0487C27.719 61.4065 27.6672 62.1146 27.7058 62.8241C27.8157 64.8469 27.7592 66.8703 27.7651 68.8933C27.7677 69.7939 27.7054 70.6944 27.6954 71.5952C27.6878 72.2854 27.8846 72.9026 28.4941 73.3363C28.6331 73.4352 28.7946 73.5451 28.7183 73.7375C28.6573 73.8914 28.483 73.9139 28.3284 73.9146C27.2058 73.9198 26.0831 73.9214 24.9605 73.9227C24.8029 73.9229 24.6398 73.8995 24.5807 73.7375C24.5158 73.5593 24.673 73.4818 24.7937 73.3919C25.4094 72.9339 25.6849 72.3349 25.6771 71.5775C25.6584 69.7563 25.6712 67.9348 25.6712 66.0581Z" fill="black"/>
</svg>
